<svg width="33" height="31" viewBox="0 0 33 31" fill="none" xmlns="">
<g clip-path="url(#clip0_32_16)">
<path d="M10.8 14.6L3.1 27H7.3C11.4 27 11.7 26.8 14.9 21.3C18.6 15.2 18.2 15.2 22.4 21.5C23.2 22.6 24.1 23.2 24.5 22.8C25.1 22.2 19.4 12 18.5 12C18.3 12 16.3 14.9 14.1 18.5C11.8 22.1 9.5 25 8.9 25C8.3 25 8.1 24.3 8.4 23.3C9.2 21.3 18.1 7 18.6 7C19.1 7 29 23.3 29 24.2C29 24.6 27.3 25 25.2 25C22.1 25 21.1 24.5 20 22.5C19.2 21 18.3 20.3 17.7 20.9C17.2 21.4 17.5 22.8 18.5 24.4C20.1 26.8 20.8 27 27.1 27H33.9L26.3 14.7C22.2 8 18.7 2.4 18.6 2.3C18.5 2.2 15 7.7 10.8 14.6Z" fill="#444444"/>
</g>
<defs>
<clipPath id="clip0_32_16">
<rect width="33" height="31" fill="white"/>
</clipPath>
</defs>
</svg>
