<svg width="149" height="23" viewBox="0 0 149 23" fill="none" xmlns="http://www.w3.org/2000/svg">
<path d="M0.616 10.84C0.616 9.57867 0.850667 8.47133 1.32 7.518C1.804 6.56467 2.45667 5.83133 3.278 5.318C4.09933 4.80467 5.016 4.548 6.028 4.548C6.89333 4.548 7.64867 4.724 8.294 5.076C8.954 5.428 9.46 5.89 9.812 6.462V4.724H13.574V17H9.812V15.262C9.44533 15.834 8.932 16.296 8.272 16.648C7.62667 17 6.87133 17.176 6.006 17.176C5.00867 17.176 4.09933 16.9193 3.278 16.406C2.45667 15.878 1.804 15.1373 1.32 14.184C0.850667 13.216 0.616 12.1013 0.616 10.84ZM9.812 10.862C9.812 9.92333 9.548 9.18267 9.02 8.64C8.50667 8.09733 7.876 7.826 7.128 7.826C6.38 7.826 5.742 8.09733 5.214 8.64C4.70067 9.168 4.444 9.90133 4.444 10.84C4.444 11.7787 4.70067 12.5267 5.214 13.084C5.742 13.6267 6.38 13.898 7.128 13.898C7.876 13.898 8.50667 13.6267 9.02 13.084C9.548 12.5413 9.812 11.8007 9.812 10.862ZM31.9596 4.592C33.485 4.592 34.695 5.054 35.5896 5.978C36.499 6.902 36.9536 8.18533 36.9536 9.828V17H33.2136V10.334C33.2136 9.542 33.001 8.93333 32.5756 8.508C32.165 8.068 31.593 7.848 30.8596 7.848C30.1263 7.848 29.547 8.068 29.1216 8.508C28.711 8.93333 28.5056 9.542 28.5056 10.334V17H24.7656V10.334C24.7656 9.542 24.553 8.93333 24.1276 8.508C23.717 8.068 23.145 7.848 22.4116 7.848C21.6783 7.848 21.099 8.068 20.6736 8.508C20.263 8.93333 20.0576 9.542 20.0576 10.334V17H16.2956V4.724H20.0576V6.264C20.439 5.75067 20.9376 5.34733 21.5536 5.054C22.1696 4.746 22.8663 4.592 23.6436 4.592C24.5676 4.592 25.389 4.79 26.1076 5.186C26.841 5.582 27.413 6.14667 27.8236 6.88C28.249 6.20533 28.8283 5.65533 29.5616 5.23C30.295 4.80467 31.0943 4.592 31.9596 4.592ZM43.3467 6.462C43.7134 5.89 44.2194 5.428 44.8647 5.076C45.51 4.724 46.2654 4.548 47.1307 4.548C48.1427 4.548 49.0594 4.80467 49.8807 5.318C50.702 5.83133 51.3474 6.56467 51.8167 7.518C52.3007 8.47133 52.5427 9.57867 52.5427 10.84C52.5427 12.1013 52.3007 13.216 51.8167 14.184C51.3474 15.1373 50.702 15.878 49.8807 16.406C49.0594 16.9193 48.1427 17.176 47.1307 17.176C46.28 17.176 45.5247 17 44.8647 16.648C44.2194 16.296 43.7134 15.8413 43.3467 15.284V22.852H39.5847V4.724H43.3467V6.462ZM48.7147 10.84C48.7147 9.90133 48.4507 9.168 47.9227 8.64C47.4094 8.09733 46.7714 7.826 46.0087 7.826C45.2607 7.826 44.6227 8.09733 44.0947 8.64C43.5814 9.18267 43.3247 9.92333 43.3247 10.862C43.3247 11.8007 43.5814 12.5413 44.0947 13.084C44.6227 13.6267 45.2607 13.898 46.0087 13.898C46.7567 13.898 47.3947 13.6267 47.9227 13.084C48.4507 12.5267 48.7147 11.7787 48.7147 10.84ZM58.2783 0.72V17H54.5163V0.72H58.2783ZM72.5766 10.664C72.5766 11.016 72.5546 11.3827 72.5106 11.764H63.9966C64.0553 12.5267 64.2973 13.1133 64.7226 13.524C65.1626 13.92 65.698 14.118 66.3286 14.118C67.2673 14.118 67.92 13.722 68.2866 12.93H72.2906C72.0853 13.7367 71.7113 14.4627 71.1686 15.108C70.6406 15.7533 69.9733 16.2593 69.1666 16.626C68.36 16.9927 67.458 17.176 66.4606 17.176C65.258 17.176 64.1873 16.9193 63.2486 16.406C62.31 15.8927 61.5766 15.1593 61.0486 14.206C60.5206 13.2527 60.2566 12.138 60.2566 10.862C60.2566 9.586 60.5133 8.47133 61.0266 7.518C61.5546 6.56467 62.288 5.83133 63.2266 5.318C64.1653 4.80467 65.2433 4.548 66.4606 4.548C67.6486 4.548 68.7046 4.79733 69.6286 5.296C70.5526 5.79467 71.2713 6.506 71.7846 7.43C72.3126 8.354 72.5766 9.432 72.5766 10.664ZM68.7266 9.674C68.7266 9.02867 68.5066 8.51533 68.0666 8.134C67.6266 7.75267 67.0766 7.562 66.4166 7.562C65.786 7.562 65.2506 7.74533 64.8106 8.112C64.3853 8.47867 64.1213 8.99933 64.0186 9.674H68.7266ZM89.9044 13.348H82.9084L81.5664 17H79.9384L85.5484 1.82H87.2864L92.8744 17H91.2464L89.9044 13.348ZM89.4424 12.072L86.4064 3.756L83.3704 12.072H89.4424ZM94.6419 10.972C94.6419 9.74 94.8913 8.662 95.3899 7.738C95.8886 6.79933 96.5706 6.08067 97.4359 5.582C98.3159 5.06867 99.3059 4.812 100.406 4.812C101.462 4.812 102.415 5.06867 103.266 5.582C104.117 6.09533 104.74 6.76267 105.136 7.584V0.72H106.676V17H105.136V14.316C104.769 15.152 104.168 15.8413 103.332 16.384C102.496 16.912 101.513 17.176 100.384 17.176C99.2839 17.176 98.2939 16.9193 97.4139 16.406C96.5486 15.8927 95.8666 15.1667 95.3679 14.228C94.8839 13.2893 94.6419 12.204 94.6419 10.972ZM105.136 10.994C105.136 10.026 104.938 9.17533 104.542 8.442C104.146 7.70867 103.603 7.144 102.914 6.748C102.239 6.352 101.491 6.154 100.67 6.154C99.8193 6.154 99.0566 6.34467 98.3819 6.726C97.7073 7.10733 97.1719 7.66467 96.7759 8.398C96.3946 9.11667 96.2039 9.97467 96.2039 10.972C96.2039 11.9547 96.3946 12.82 96.7759 13.568C97.1719 14.3013 97.7073 14.866 98.3819 15.262C99.0566 15.6433 99.8193 15.834 100.67 15.834C101.491 15.834 102.239 15.636 102.914 15.24C103.603 14.844 104.146 14.2793 104.542 13.546C104.938 12.8127 105.136 11.962 105.136 10.994ZM124.492 4.768C125.9 4.768 127.044 5.21533 127.924 6.11C128.818 6.99 129.266 8.27333 129.266 9.96V17H127.748V10.136C127.748 8.83067 127.432 7.83333 126.802 7.144C126.171 6.45467 125.313 6.11 124.228 6.11C123.098 6.11 122.196 6.484 121.522 7.232C120.847 7.98 120.51 9.06533 120.51 10.488V17H118.992V10.136C118.992 8.83067 118.676 7.83333 118.046 7.144C117.415 6.45467 116.55 6.11 115.45 6.11C114.32 6.11 113.418 6.484 112.744 7.232C112.069 7.98 111.732 9.06533 111.732 10.488V17H110.192V4.988H111.732V7.056C112.113 6.308 112.656 5.74333 113.36 5.362C114.064 4.966 114.848 4.768 115.714 4.768C116.755 4.768 117.664 5.01733 118.442 5.516C119.234 6.01467 119.806 6.748 120.158 7.716C120.48 6.76267 121.03 6.03667 121.808 5.538C122.6 5.02467 123.494 4.768 124.492 4.768ZM133.456 2.722C133.148 2.722 132.884 2.612 132.664 2.392C132.444 2.172 132.334 1.90067 132.334 1.578C132.334 1.25533 132.444 0.991332 132.664 0.785999C132.884 0.565999 133.148 0.455999 133.456 0.455999C133.764 0.455999 134.028 0.565999 134.248 0.785999C134.468 0.991332 134.578 1.25533 134.578 1.578C134.578 1.90067 134.468 2.172 134.248 2.392C134.028 2.612 133.764 2.722 133.456 2.722ZM134.226 4.988V17H132.686V4.988H134.226ZM143.345 4.768C144.782 4.768 145.956 5.21533 146.865 6.11C147.774 6.99 148.229 8.27333 148.229 9.96V17H146.711V10.136C146.711 8.83067 146.381 7.83333 145.721 7.144C145.076 6.45467 144.188 6.11 143.059 6.11C141.9 6.11 140.976 6.47667 140.287 7.21C139.598 7.94333 139.253 9.02133 139.253 10.444V17H137.713V4.988H139.253V7.034C139.634 6.30067 140.184 5.74333 140.903 5.362C141.622 4.966 142.436 4.768 143.345 4.768Z" fill="white"/>
</svg>
